# xmcd CD database file
#
# Track frame offsets:
#	150
#	28282
#	51252
#	76236
#	92655
#	125702
#	147799
#	177809
#	199308
#	237810
#	250557
#
# Disc length: 3565 seconds
#
# Revision: 0
# Processed by: cddbd v1.4PL0 Copyright (c) Steve Scherf et al.
# Submitted via: CDex 1.50beta9
#
DISCID=910deb0b
DTITLE=Joachim Kühn - Triple Entente
DYEAR=1998
DGENRE=Jazz
TTITLE0=4 Ornette
TTITLE1=Enna
TTITLE2=La Galinette
TTITLE3=Salinas
TTITLE4=Missing a Page
TTITLE5=The Tonica On Top
TTITLE6=Sunny Sunday
TTITLE7=Early In The Morning
TTITLE8=Croquis
TTITLE9=Call Money
TTITLE10=More Tuna
EXTD=YEAR: 1998
EXTT0=
EXTT1=
EXTT2=
EXTT3=
EXTT4=
EXTT5=
EXTT6=
EXTT7=
EXTT8=
EXTT9=
EXTT10=
PLAYORDER=
